<?xml version="1.0" encoding="utf-8"?>
<!-- Generator: Adobe Illustrator 24.1.2, SVG Export Plug-In . SVG Version: 6.00 Build 0)  -->
<svg version="1.1" id="Camada_1" xmlns="http://www.w3.org/2000/svg" xmlns:xlink="http://www.w3.org/1999/xlink" x="0px" y="0px"
	 viewBox="0 0 869 250" style="enable-background:new 0 0 869 250;" xml:space="preserve">
<style type="text/css">
	.st0{display:none;}
	.st1{fill:#1D1D1B;}
</style>
<g id="Camada_1_1_" class="st0">
</g>
<g id="Camada_2_1_">
	<g>
		<path d="M265.2,183.8V98h14.2c4.4,0,8.9,0.4,13.6,1.1c4.7,0.7,9.1,2,13.5,3.7c4.3,1.8,8.2,4.2,11.6,7.3c3.4,3.1,6.2,7,8.3,11.7
			c2.1,4.7,3.1,10.5,3.2,17.3v3.7c0,6.6-1,12.4-3,17.2c-2.1,4.8-4.8,8.7-8.3,11.8c-3.4,3.1-7.3,5.6-11.7,7.3
			c-4.3,1.8-8.8,2.9-13.5,3.7c-4.7,0.7-9.3,1.1-13.7,1.1h-14.2V183.8z M279.4,170.7c4,0,8.1-0.3,12.2-0.9c4.2-0.6,8-1.9,11.6-3.7
			c3.6-1.9,6.5-4.7,8.7-8.4c2.2-3.7,3.3-8.7,3.3-15v-3.4c0-6.2-1.1-11.1-3.3-14.9s-5.1-6.6-8.7-8.4c-3.6-1.9-7.4-3.1-11.6-3.7
			c-4.2-0.6-8.2-0.9-12.2-0.9V170.7z"/>
		<path d="M344.3,183.8v-65.5H358v65.5H344.3z M344.4,104.8V91.4h13.4v13.4H344.4z"/>
		<path d="M426.3,152.6v31.2h-55.7c-0.6-8-0.1-14.6,1.3-19.8c1.5-5.2,3.5-9.4,6.4-12.5c2.8-3.1,6.1-5.4,9.6-6.9
			c3.6-1.5,7.3-2.5,11.1-3c3.8-0.5,7.4-0.8,10.9-0.8c-1.8-2.8-4.1-5-6.9-6.5c-2.8-1.5-5.9-2.3-9-2.8c-3.1-0.5-6.1-0.8-8.8-0.9h-11.3
			v-12.6h12c4.8,0.1,9.6,0.6,14.4,1.6c4.8,1,9.1,2.7,13,5.2c3.9,2.4,7,6,9.5,10.5C425.1,139.8,426.3,145.6,426.3,152.6z M384,171.3
			h28.7v-18.5c-10.2,0.1-17.6,1.5-22,4C386.3,159.4,384,164.3,384,171.3z"/>
		<path d="M445.2,208.3v-13.4c3.6-0.3,7.1-0.9,10.6-2c3.4-1.1,6.6-2.6,9.4-4.7c2.8-2.1,5.1-4.8,6.7-8.3c1.7-3.4,2.5-7.6,2.5-12.7v-6
			c-9.3,0-16.8-1-22.4-2.9c-5.7-2-9.9-4.8-12.9-8.4c-2.9-3.7-4.9-8.2-6-13.5c-1-5.4-1.6-11.3-1.6-18.1h56.4v47.9
			c0,7.5-1.3,13.9-3.7,19.1c-2.4,5.2-5.8,9.5-10,12.8s-8.8,5.8-13.9,7.3C455.5,207,450.4,207.9,445.2,208.3z M446.1,130.8
			c0,6.3,2.2,10.9,6.4,13.9c4.2,2.9,11.5,4.4,21.9,4.4v-18.3H446.1z"/>
		<path d="M502.5,183.8v-31.2c0-7.1,1.2-12.9,3.6-17.4c2.4-4.5,5.6-8,9.6-10.5c4-2.4,8.4-4.3,13.3-5.4c4.9-1.1,9.7-1.9,14.5-2.2
			v12.6c-3.3,0.3-6.6,0.7-9.9,1.3c-3.2,0.6-6.3,1.7-8.9,3.1c-2.6,1.5-4.8,3.7-6.4,6.6c-1.6,2.9-2.3,6.9-2.3,11.8v31.1H502.5z"/>
		<path d="M602,152.6v31.2h-55.7c-0.6-8-0.1-14.6,1.3-19.8c1.5-5.2,3.5-9.4,6.4-12.5c2.8-3.1,6.1-5.4,9.6-6.9
			c3.6-1.5,7.3-2.5,11.1-3c3.8-0.5,7.4-0.8,10.9-0.8c-1.8-2.8-4.1-5-6.9-6.5c-2.8-1.5-5.9-2.3-9-2.8c-3.1-0.5-6.1-0.8-8.8-0.9h-11.3
			v-12.6h12c4.8,0.1,9.6,0.6,14.4,1.6s9.1,2.7,13,5.2c3.9,2.4,7,6,9.5,10.5C600.8,139.8,602,145.6,602,152.6z M559.7,171.3h28.7
			v-18.5c-10.2,0.1-17.6,1.5-22,4C562,159.4,559.7,164.3,559.7,171.3z"/>
		<path d="M615.7,183.8v-65.5h13.4c4,0,8,0.7,11.9,2.1c3.9,1.4,7.5,3.3,10.9,6.1v-8.1h13.6c4.2,0,8.3,0.6,12.5,1.7
			c4.2,1.1,8,2.9,11.5,5.5c3.4,2.5,6.3,5.9,8.4,10.1c2.2,4.2,3.2,9.4,3.2,15.6v32.7h-13.7v-30.7c0-5.9-1-10.4-2.8-13.5
			c-1.9-3.1-4.5-5.3-7.8-6.6c-3.3-1.3-7.1-2-11.5-2.2v52.9h-13.4v-28.2c0-5.9-1-10.7-3-14.3c-2-3.6-4.7-6.3-8.1-7.9
			c-3.4-1.7-7.1-2.5-11.3-2.5v52.9H615.7z"/>
		<path d="M765.8,152.6v31.2h-55.7c-0.6-8-0.1-14.6,1.3-19.8c1.5-5.2,3.5-9.4,6.4-12.5c2.8-3.1,6.1-5.4,9.6-6.9
			c3.6-1.5,7.3-2.5,11.1-3c3.8-0.5,7.4-0.8,10.9-0.8c-1.8-2.8-4.1-5-6.9-6.5c-2.8-1.5-5.9-2.3-9-2.8c-3.1-0.5-6.1-0.8-8.8-0.9h-11.3
			v-12.6h12c4.8,0.1,9.6,0.6,14.4,1.6s9.1,2.7,13,5.2c3.9,2.4,7,6,9.5,10.5C764.7,139.8,765.8,145.6,765.8,152.6z M723.6,171.3h28.7
			v-18.5c-10.2,0.1-17.6,1.5-22,4C725.8,159.4,723.6,164.3,723.6,171.3z"/>
		<path d="M779.5,183.8v-65.5h13.2c5.6,0,11,0.6,16.1,1.8c5.2,1.2,9.9,3.2,14,6.2s7.4,7,9.8,12.4c2.4,5.4,3.6,12.2,3.6,20.7v24.4
			h-14.2v-24.3c0-6.6-0.8-11.7-2.3-15.4c-1.6-3.8-3.6-6.6-6.3-8.6c-2.6-2-5.7-3.1-9.2-3.7c-3.4-0.6-7.1-0.9-11-0.9v53H779.5z"/>
	</g>
	<g>
		<path class="st1" d="M108.8,209.6c0,6.9,1.6,13.4,4.3,19.3c-0.1-0.2-0.2-0.3-0.3-0.4C63,228.3,22.7,187.9,22.7,138
			c0-49.9,40.5-90.4,90.4-90.4c16.2,0,31.3,4.3,44.5,11.8c1.1-2.1,2.6-4.2,4.5-6.3c-14.4-8.4-31.1-13.2-49-13.2
			c-54.2,0-98.2,43.9-98.2,98.2s43.9,98.2,98.2,98.2c1.4,0,2.7-0.1,4.1-0.2c2.4-0.1,4.8-0.4,7.1-0.7c-0.2-1.3-0.4-2.7-0.5-4.1
			c-4.3-6.2-6.9-13.6-6.9-21.6c0-10.9,4.6-20.7,11.8-27.6c0.9-4,1.9-8.1,3-12.3C118,177.7,108.8,192.5,108.8,209.6z"/>
		<path class="st1" d="M203,129.8c0.2,2.7,0.4,5.4,0.4,8.2c0,15.9-4.2,30.9-11.4,43.9c0.2,0.2,0.3,0.5,0.5,0.8
			c-1.1-1.6-2.4-3.1-3.7-4.5c-1.1,2.9-2.2,5.7-3.3,8.5c2.4,3.2,4.2,6.7,5.6,10.5c1.9-2.5,3.8-5.1,5.5-7.8
			c9.2-15,14.6-32.5,14.6-51.4c0-10.4-1.7-20.5-4.7-29.9C205.8,114.9,204.6,122.1,203,129.8z"/>
		<path class="st1" d="M217,11.6c-1.3,6.3-8.3,13-11.8,16c-0.5,0.4-1.1,0.9-1.6,1.3c-0.4,0.3-0.6,0.4-0.6,0.4s0,0,0.1,0.1
			c-6.1,5.7-13,15.7-24.4,25.9c-12.7,11.4-8.6,23.7-0.9,31.5c-9.5,14-20.3,36.6-29.3,63.1c-15.9,46.6-20.4,87.2-10,90.8
			c10.4,3.6,31.7-31.3,47.7-77.9c8.9-26.1,14.3-50.4,15.4-67.2c9.9-0.9,19.5-6.9,19-22.3c-0.4-13.6,1.6-24.7,1.9-33
			c0-0.1,0-0.1,0.1-0.2C223.1,31.7,218.8,3,217,11.6z M182,159c-13.1,38.2-33.4,68.2-38.4,66.5c-4.9-1.7-3.7-35.3,9.4-73.5
			c9.5-27.8,25.2-49.7,32-59.6c0,0,0,0,0,0c0.5,0.2,1,0.5,1.6,0.6c0.1,0,0.3,0.1,0.4,0.1c2.3,0.5,3.8,0.9,5.4,1.7
			C191.7,106.8,191.5,131.1,182,159z M211.7,67.9c-1,16.2-14.2,18.8-20.6,16.1c-6.4-2.7-13.5-14-2.5-26
			c12.4-13.4,17.3-25.9,23.6-23.2C218.6,37.6,212.8,49.9,211.7,67.9z"/>
		<path class="st1" d="M76.1,197.6c15.4,0,28-12.5,28-28s-12.5-28-28-28s-28,12.5-28,28S60.6,197.6,76.1,197.6z M76.1,149.9
			c10.9,0,19.8,8.8,19.8,19.8c0,10.9-8.8,19.8-19.8,19.8c-10.9,0-19.8-8.8-19.8-19.8C56.3,158.7,65.1,149.9,76.1,149.9z"/>
		<path class="st1" d="M71.6,122.1c11.7,0,21.2-9.5,21.2-21.2c0-11.7-9.5-21.2-21.2-21.2c-11.7,0-21.2,9.5-21.2,21.2
			C50.5,112.7,59.9,122.1,71.6,122.1z M71.6,88c7.2,0,13,5.8,13,13c0,7.2-5.8,13-13,13c-7.2,0-13-5.8-13-13
			C58.6,93.8,64.4,88,71.6,88z"/>
		<path class="st1" d="M109.5,75.4c0,8.7,7,15.7,15.7,15.7c8.7,0,15.7-7,15.7-15.7c0-8.7-7-15.7-15.7-15.7
			C116.6,59.7,109.5,66.7,109.5,75.4z M132.8,75.4c0,4.2-3.4,7.6-7.6,7.6c-4.2,0-7.6-3.4-7.6-7.6c0-4.2,3.4-7.6,7.6-7.6
			C129.4,67.8,132.8,71.2,132.8,75.4z"/>
	</g>
</g>
</svg>
