<?xml version="1.0" encoding="utf-8"?>
<!-- Generator: Adobe Illustrator 24.1.2, SVG Export Plug-In . SVG Version: 6.00 Build 0)  -->
<svg version="1.1" xmlns="http://www.w3.org/2000/svg" xmlns:xlink="http://www.w3.org/1999/xlink" x="0px" y="0px"
	 viewBox="0 0 869 250" style="enable-background:new 0 0 869 250;" xml:space="preserve">
<style type="text/css">
	.st0{display:none;}
</style>
<g id="Camada_1" class="st0">
	
		<image style="display:inline;overflow:visible;" width="515" height="530" xlink:href="5EDFC71E.jpg"  transform="matrix(0.6571 0 0 0.6571 -30.3284 -78.2388)">
	</image>
</g>
<g id="Camada_2">
	<path d="M128.1,14.5c-67.2,0-110,56.3-110,115.1c0,58.8,51.3,101.8,110,105.7c31,2.1,90.4-15.4,90.4-43c0-24.8-39.7-22.2-28.6-52.5
		c12-32.6,43.1-12.2,44.1-44.2C235.5,53.8,193.7,14.5,128.1,14.5z M84.6,49.6c10,0,18.2,8.1,18.2,18.2s-8.1,18.2-18.2,18.2
		c-10,0-18.2-8.1-18.2-18.2S74.6,49.6,84.6,49.6z M54,141.9c-11.6,0-21-9.4-21-21c0-11.6,9.4-21,21-21c11.6,0,21,9.4,21,21
		C75,132.5,65.6,141.9,54,141.9z M102.7,208.4c-15.4,0-27.9-12.5-27.9-27.9s12.5-27.9,27.9-27.9s27.9,12.5,27.9,27.9
		S118.2,208.4,102.7,208.4z M128.7,54.1c0-12.6,10.2-22.8,22.8-22.8c12.6,0,22.8,10.2,22.8,22.8c0,12.6-10.2,22.8-22.8,22.8
		C138.9,76.9,128.7,66.7,128.7,54.1z M197.5,190.3c0,10-8.1,18.2-18.2,18.2c-10,0-18.2-8.1-18.2-18.2c0-10,8.1-18.2,18.2-18.2
		C189.4,172.1,197.5,180.2,197.5,190.3z M200.7,109.7c-7.8,0-14.1-6.3-14.1-14.1c0-7.8,6.3-14.1,14.1-14.1c7.8,0,14.1,6.3,14.1,14.1
		C214.8,103.4,208.5,109.7,200.7,109.7z"/>
	<g>
		<path d="M257.1,207v-87.7h14.5c4.5,0,9.1,0.4,13.9,1.1c4.8,0.7,9.3,2,13.8,3.8c4.4,1.8,8.4,4.3,11.9,7.5c3.5,3.2,6.3,7.2,8.5,12
			c2.1,4.8,3.2,10.7,3.3,17.7v3.8c0,6.8-1,12.7-3.1,17.6c-2.1,4.9-4.9,8.9-8.5,12.1c-3.5,3.2-7.5,5.7-12,7.5c-4.4,1.8-9,3-13.8,3.8
			c-4.8,0.7-9.5,1.1-14,1.1H257.1z M271.6,193.6c4.1,0,8.3-0.3,12.5-0.9c4.3-0.6,8.2-1.9,11.9-3.8c3.7-1.9,6.6-4.8,8.9-8.6
			c2.3-3.8,3.4-8.9,3.4-15.3v-3.5c0-6.3-1.1-11.4-3.4-15.2c-2.3-3.8-5.2-6.7-8.9-8.6c-3.7-1.9-7.6-3.2-11.9-3.8
			c-4.3-0.6-8.4-0.9-12.5-0.9V193.6z"/>
		<path d="M338,207v-67h14v67H338z M338.1,126.2v-13.7h13.7v13.7H338.1z"/>
		<path d="M421.8,175.1V207h-57c-0.6-8.2-0.1-14.9,1.3-20.3c1.5-5.3,3.6-9.6,6.5-12.8c2.9-3.2,6.2-5.5,9.8-7.1
			c3.7-1.5,7.5-2.6,11.4-3.1c3.9-0.5,7.6-0.8,11.1-0.8c-1.8-2.9-4.2-5.1-7.1-6.6c-2.9-1.5-6-2.4-9.2-2.9c-3.2-0.5-6.2-0.8-9-0.9
			h-11.6v-12.9h12.3c4.9,0.1,9.8,0.6,14.7,1.6c4.9,1,9.3,2.8,13.3,5.3c4,2.5,7.2,6.1,9.7,10.7C420.6,162,421.8,167.9,421.8,175.1z
			 M378.6,194.2H408v-18.9c-10.4,0.1-18,1.5-22.5,4.1C380.9,182.1,378.6,187.1,378.6,194.2z"/>
		<path d="M441.2,232.1v-13.7c3.7-0.3,7.3-0.9,10.8-2c3.5-1.1,6.7-2.7,9.6-4.8c2.9-2.1,5.2-4.9,6.9-8.5c1.7-3.5,2.6-7.8,2.6-13V184
			c-9.5,0-17.2-1-22.9-3c-5.8-2-10.1-4.9-13.2-8.6c-3-3.8-5-8.4-6.1-13.8c-1-5.5-1.6-11.6-1.6-18.5H485v49c0,7.7-1.3,14.2-3.8,19.5
			c-2.5,5.3-5.9,9.7-10.2,13.1c-4.3,3.4-9,5.9-14.2,7.5C451.7,230.7,446.5,231.7,441.2,232.1z M442.1,152.8c0,6.4,2.2,11.1,6.5,14.2
			c4.3,3,11.8,4.5,22.4,4.5v-18.7H442.1z"/>
		<path d="M499.8,207v-31.9c0-7.3,1.2-13.2,3.7-17.8c2.5-4.6,5.7-8.2,9.8-10.7c4.1-2.5,8.6-4.4,13.6-5.5c5-1.1,9.9-1.9,14.8-2.2
			v12.9c-3.4,0.3-6.8,0.7-10.1,1.3c-3.3,0.6-6.4,1.7-9.1,3.2c-2.7,1.5-4.9,3.8-6.5,6.8c-1.6,3-2.4,7.1-2.4,12.1V207H499.8z"/>
		<path d="M601.5,175.1V207h-57c-0.6-8.2-0.1-14.9,1.3-20.3c1.5-5.3,3.6-9.6,6.5-12.8c2.9-3.2,6.2-5.5,9.8-7.1
			c3.7-1.5,7.5-2.6,11.4-3.1c3.9-0.5,7.6-0.8,11.1-0.8c-1.8-2.9-4.2-5.1-7.1-6.6c-2.9-1.5-6-2.4-9.2-2.9c-3.2-0.5-6.2-0.8-9-0.9
			h-11.6v-12.9h12.3c4.9,0.1,9.8,0.6,14.7,1.6c4.9,1,9.3,2.8,13.3,5.3c4,2.5,7.2,6.1,9.7,10.7C600.3,162,601.5,167.9,601.5,175.1z
			 M558.3,194.2h29.4v-18.9c-10.4,0.1-18,1.5-22.5,4.1C560.6,182.1,558.3,187.1,558.3,194.2z"/>
		<path d="M615.5,207v-67h13.7c4.1,0,8.2,0.7,12.2,2.1c4,1.4,7.7,3.4,11.1,6.2V140h13.9c4.3,0,8.5,0.6,12.8,1.7
			c4.3,1.1,8.2,3,11.8,5.6c3.5,2.6,6.4,6,8.6,10.3c2.2,4.3,3.3,9.6,3.3,16V207h-14v-31.4c0-6-1-10.6-2.9-13.8
			c-1.9-3.2-4.6-5.4-8-6.7c-3.4-1.3-7.3-2-11.8-2.2V207h-13.7v-28.8c0-6-1-10.9-3.1-14.6c-2-3.7-4.8-6.4-8.3-8.1
			c-3.5-1.7-7.3-2.6-11.6-2.6V207H615.5z"/>
		<path d="M769.1,175.1V207h-57c-0.6-8.2-0.1-14.9,1.3-20.3c1.5-5.3,3.6-9.6,6.5-12.8c2.9-3.2,6.2-5.5,9.8-7.1
			c3.7-1.5,7.5-2.6,11.4-3.1c3.9-0.5,7.6-0.8,11.1-0.8c-1.8-2.9-4.2-5.1-7.1-6.6c-2.9-1.5-6-2.4-9.2-2.9c-3.2-0.5-6.2-0.8-9-0.9
			h-11.6v-12.9h12.3c4.9,0.1,9.8,0.6,14.7,1.6c4.9,1,9.3,2.8,13.3,5.3c4,2.5,7.2,6.1,9.7,10.7C767.9,162,769.1,167.9,769.1,175.1z
			 M725.9,194.2h29.4v-18.9c-10.4,0.1-18,1.5-22.5,4.1C728.2,182.1,725.9,187.1,725.9,194.2z"/>
		<path d="M783.1,207v-67h13.5c5.7,0,11.2,0.6,16.5,1.8c5.3,1.2,10.1,3.3,14.3,6.3c4.2,3,7.6,7.2,10,12.7c2.5,5.5,3.7,12.5,3.7,21.2
			v25h-14.5v-24.9c0-6.7-0.8-12-2.4-15.8c-1.6-3.9-3.7-6.8-6.4-8.8c-2.7-2-5.8-3.2-9.4-3.8c-3.5-0.6-7.3-0.9-11.2-0.9V207H783.1z"/>
	</g>
</g>
</svg>
