<?xml version="1.0" encoding="utf-8"?>
<!-- Generator: Adobe Illustrator 24.1.2, SVG Export Plug-In . SVG Version: 6.00 Build 0)  -->
<svg version="1.1" id="Camada_1" xmlns="http://www.w3.org/2000/svg" xmlns:xlink="http://www.w3.org/1999/xlink" x="0px" y="0px"
	 viewBox="0 0 48 48" style="enable-background:new 0 0 48 48;" xml:space="preserve">
<style type="text/css">
	.st0{fill:#FFFFFF;}
</style>
<g>
	<path class="st0" d="M37.8,32.2c-0.4,1.2-0.8,2.4-1.3,3.5c0.2,0.3,0.3,0.6,0.4,1c0.4-0.5,0.7-1,1-1.5c1.7-2.8,2.8-6.2,2.8-9.7
		c0-1.3-0.1-2.6-0.4-3.9C40,24.7,39.1,28.4,37.8,32.2z"/>
	<path class="st0" d="M32.6,17.5c-2.1-1.9-3.1-4.8-0.1-7.4c-3-2-6.5-3.1-10.3-3.1C12,6.9,3.6,15.2,3.6,25.5C3.6,35.7,12,44,22.2,44
		c0.3,0,0.5,0,0.8,0c0.6,0,1.1-0.1,1.7-0.2c0-0.1,0-0.1,0-0.2c-1.1-1.3-1.7-2.9-1.7-4.6c0-2.5,1.3-4.7,3.2-6
		c0.4-1.4,0.8-2.8,1.3-4.3C28.9,24.3,30.8,20.3,32.6,17.5z M13.9,14.4c2.2,0,4,1.8,4,4c0,2.2-1.8,4-4,4s-4-1.8-4-4
		C9.9,16.2,11.7,14.4,13.9,14.4z M14.7,36.6c-2.9,0-5.3-2.4-5.3-5.3s2.4-5.3,5.3-5.3c2.9,0,5.3,2.4,5.3,5.3S17.6,36.6,14.7,36.6z
		 M24,16.5c-1.6,0-3-1.3-3-3c0-1.6,1.3-3,3-3c1.6,0,3,1.3,3,3C27,15.2,25.6,16.5,24,16.5z"/>
	<path class="st0" d="M42.4,2.4c-0.3,1.2-1.6,2.5-2.2,3c-0.1,0.1-0.2,0.2-0.3,0.3c-0.1,0.1-0.1,0.1-0.1,0.1s0,0,0,0
		c-1.2,1.1-2.5,3-4.6,4.9c-2.4,2.2-1.6,4.5-0.2,6c-1.8,2.7-3.9,7-5.6,12c-3,8.9-3.9,16.6-1.9,17.3c2,0.7,6-6,9.1-14.8
		c1.7-5,2.7-9.6,2.9-12.8c1.9-0.2,3.7-1.3,3.6-4.2c-0.1-2.6,0.3-4.7,0.4-6.3c0,0,0,0,0,0C43.6,6.2,42.8,0.8,42.4,2.4z"/>
</g>
</svg>
